<svg width="50" height="13" viewBox="0 0 50 13" fill="none" xmlns="http://www.w3.org/2000/svg">
<path d="M12.184 4.992L11.448 12H9.256L9.896 5.792H7.56L6.92 12H4.728L5.368 5.792H3.032L2.392 12H0.2L1.048 3.92H2.856L3.16 4.576L4.376 3.92H5.912L7.304 4.784L8.904 3.92H10.44L12.184 4.992ZM14.9446 4L14.1126 12H11.9206L12.7526 4H14.9446ZM12.8326 2.512L13.0566 0.32H15.4086L15.1846 2.512H12.8326ZM22.4504 4.992L21.7144 12H19.5224L20.1624 5.792H17.4264L16.7864 12H14.5944L15.4424 3.92H17.2504L17.5544 4.576L18.7704 3.92H20.7064L22.4504 4.992ZM25.214 4L24.382 12H22.19L23.022 4H25.214ZM23.102 2.512L23.326 0.32H25.678L25.454 2.512H23.102Z" fill="#2A5698"/>
<path d="M32.6718 0.799999H34.9117L33.8398 11.008L31.8717 12.08H26.8637L25.1197 11.008L26.1917 0.799999H28.4317L27.4717 10H31.7118L32.6718 0.799999ZM43.0373 12H40.5733L38.6053 7.776H37.2133L36.7813 12H34.5413L35.7093 0.799999H41.7733L43.5173 1.872L43.0053 6.704L41.0373 7.776L43.0373 12ZM37.7413 2.72L37.4213 5.856H40.8613L41.1813 2.72H37.7413ZM43.2619 12L44.4299 0.799999H46.6699L45.6939 10.08H49.5179L49.3259 12H43.2619Z" fill="#BD3970"/>
</svg>
